<svg id="Capa_1" enable-background="new 0 0 512 512" height="512" viewBox="0 0 512 512" width="512" xmlns="http://www.w3.org/2000/svg"><path d="m507.28 50.14c-3.02-7.14-7.35-13.56-12.86-19.07-5.5-5.51-11.92-9.829-19.07-12.85-7.39-3.13-15.25-4.72-23.35-4.72h-392c-8.1 0-15.96 1.59-23.35 4.72-7.15 3.021-13.57 7.34-19.08 12.85-5.5 5.51-9.83 11.93-12.85 19.07-3.13 7.4-4.72 15.259-4.72 23.36v258.46c0 8.1 1.59 15.96 4.72 23.35 3.02 7.15 7.35 13.561 12.85 19.07 5.51 5.51 11.93 9.84 19.08 12.86 7.39 3.13 15.25 4.72 23.35 4.72h134.899c-2.764 20.409-14.401 32.461-19.361 36.75h-11.538c-9.34.01-18.13 3.63-24.73 10.21-6.62 6.59-10.26 15.359-10.27 24.689.01 9.33 3.65 18.101 10.27 24.681 6.61 6.58 15.39 10.21 24.73 10.21h184c9.34 0 18.12-3.63 24.73-10.21 6.62-6.58 10.26-15.351 10.27-24.681-.01-9.33-3.65-18.1-10.27-24.689-6.61-6.58-15.39-10.2-24.73-10.21h-10.538c-4.96-4.29-16.597-16.343-19.361-36.75h51.499c5.51 0 10-4.49 10-10s-4.48-9.99-9.99-10c0 0 0 0-.01 0h-309.6c-10.67-.01-20.72-4.17-28.28-11.72-7.372-7.392-11.51-17.14-11.701-27.527h471.965c-.349 19.28-14.803 35.885-33.913 38.787-2.64.399-4.97 1.81-6.55 3.96-1.59 2.149-2.24 4.79-1.84 7.43.36 2.38 1.57 4.55 3.4 6.11 2.19 1.87 5.14 2.71 7.99 2.279 14.05-2.14 26.94-9.25 36.28-20.039 4.63-5.341 8.24-11.381 10.74-17.95 2.59-6.811 3.91-13.98 3.91-21.33v-258.46c-.001-8.101-1.591-15.96-4.721-23.36zm-195.534 379.412c-3.527 1.548-5.996 5.07-5.996 9.158 0 5.52 4.48 10 10 10h32.25c8.26.02 14.98 6.7 15 14.899-.02 8.2-6.74 14.87-15 14.891h-184c-8.26-.021-14.98-6.69-15-14.891.02-8.199 6.74-14.88 15-14.899h111.75c5.51 0 10-4.48 10-10 0-5.51-4.49-10-10-10h-73.919c5.992-8.902 11.604-21.115 13.206-36.75h82.927c1.652 16.136 7.578 28.623 13.782 37.592zm-291.746-317.39h472v200.551h-472zm460.29-66.952c7.54 7.57 11.7 17.62 11.71 28.29v18.662h-340.12l-22.453-58.662h322.573c10.67.01 20.72 4.17 28.29 11.71zm-448.57 0c7.56-7.54 17.61-11.7 28.28-11.71h48.012l7.207 18.83h-18.219c-5.51 0-10 4.489-10 10 0 5.52 4.49 10 10 10h25.874l7.591 19.832h-110.465v-18.662c0-10.67 4.17-20.72 11.72-28.29z"/><path d="m414.6 371.96c-5.51 0-10 4.479-10 10 0 5.51 4.49 10 10 10s10-4.49 10-10c0-5.521-4.49-10-10-10z"/><path d="m273.5 243.056c0 5.522 4.477 10 10 10h30c5.523 0 10-4.478 10-10s-4.477-10-10-10h-30c-5.523 0-10 4.477-10 10z"/><path d="m238.5 233.056h-150c-5.523 0-10 4.478-10 10s4.477 10 10 10h150c5.523 0 10-4.478 10-10s-4.477-10-10-10z"/><path d="m433.5 243.056c0-5.522-4.477-10-10-10h-65c-5.523 0-10 4.478-10 10s4.477 10 10 10h65c5.523 0 10-4.478 10-10z"/><path d="m138.5 272.88h-50c-5.51 0-10 4.49-10 10 0 5.52 4.49 10 10 10h50c5.51 0 10-4.48 10-10 0-5.51-4.49-10-10-10z"/><path d="m328.5 272.88h-50c-5.51 0-10 4.49-10 10 0 5.52 4.49 10 10 10h50c5.51 0 10-4.48 10-10 0-5.51-4.49-10-10-10z"/><path d="m233.5 272.88h-50c-5.52 0-10 4.49-10 10 0 5.52 4.48 10 10 10h50c5.51 0 10-4.48 10-10 0-5.51-4.49-10-10-10z"/><path d="m423.5 272.88h-50c-5.51 0-10 4.49-10 10 0 5.52 4.49 10 10 10h50c5.51 0 10-4.48 10-10 0-5.51-4.49-10-10-10z"/><path d="m369.78 72.33c5.53 0 10-4.471 10-10 0-5.521-4.47-10-10-10-5.52 0-10 4.479-10 10 0 5.529 4.48 10 10 10z"/><path d="m414.78 72.33c5.53 0 10-4.471 10-10 0-5.521-4.47-10-10-10-5.52 0-10 4.479-10 10 0 5.529 4.48 10 10 10z"/><path d="m459.78 72.33c5.53 0 10-4.471 10-10 0-5.521-4.47-10-10-10-5.52 0-10 4.479-10 10 0 5.529 4.48 10 10 10z"/><path d="m52 72.33c5.51 0 10-4.48 10-10 0-5.511-4.49-10-10-10s-10 4.489-10 10c0 5.52 4.49 10 10 10z"/><path d="m226.987 211.758c1.504.827 3.164 1.238 4.82 1.238 1.855 0 3.708-.516 5.334-1.541l48.522-30.594c2.902-1.83 4.664-5.02 4.667-8.451s-1.753-6.624-4.653-8.458l-48.66-30.79c-3.084-1.952-6.986-2.067-10.18-.305-3.195 1.765-5.175 5.128-5.167 8.777l.138 61.384c.008 3.639 1.991 6.986 5.179 8.74zm34.617-39.37-19.837 12.507-.056-25.095z"/></svg>